<svg width="800px" height="800px" viewBox="0 0 80 80" fill="none" xmlns="http://www.w3.org/2000/svg">

<path d="M50.4274 19.4019C50.7517 20.0717 50.9479 20.9975 50.9479 22.2562C50.9479 27.5339 44.9193 29.7397 43.5924 30.1621L37.6022 30.3839H32.1624C42.4191 28.6602 49.7661 23.0625 50.4274 19.4019Z" fill="url(#paint1_linear)" data-index="1" style="visibility: hidden;"></path>

<path d="M64.1954 38.8317C59.8393 38.8317 47.5815 38.8317 47.5815 38.8317C47.5815 38.8317 48.7676 40.0818 49.1559 41.7671C48.8743 40.9309 46.9373 39.3309 45.8877 38.6568C44.7571 37.9315 47.0183 37.4622 50.0049 37.4622C52.9915 37.4622 64.5069 37.219 69.1617 37.219C71.9435 37.219 73.9999 36.1353 73.9999 34.4756C73.9957 39.1944 68.5516 38.8317 64.1954 38.8317Z" fill="url(#paint3_linear)" data-index="3" style="visibility: hidden;"></path>

<path d="M14.5286 57.6429C21.7262 57.2205 16.5936 51.7764 24.3288 57.5832C28.7489 60.9026 37.0346 60.0621 40.2985 59.6994C43.5666 59.3368 44.2322 56.555 44.7143 54.618C45.1367 52.9369 47.3041 52.3055 47.8716 50.9487C47.27 53.2399 45.5676 53.6238 45.6444 55.9278C45.7255 58.3469 43.7885 61.6535 34.3509 61.6535C24.9133 61.6535 22.4942 58.9912 20.4804 58.9912C18.4666 58.9912 14.183 58.7394 11.2007 58.7394C11.2007 58.7394 9.40871 58.0952 7.92822 55.3134C9.64337 55.8297 11.926 57.7965 14.5286 57.6429Z" fill="url(#paint5_linear)" data-index="5" style="visibility: hidden;"></path>

<path d="M6.00854 46.4389C11.3716 45.577 16.3549 49.5108 24.5637 49.5108C33.5746 49.5108 38.302 55.3815 47.3982 52.1432C46.6559 53.4744 45.585 54.093 45.649 55.9276C45.73 58.3468 43.793 61.6533 34.3554 61.6533C24.9178 61.6533 22.4987 58.991 20.4849 58.991C18.4711 58.991 14.1875 58.735 11.2052 58.7393C11.2009 58.7436 6.21761 56.9473 6.00854 46.4389Z" fill="url(#paint7_linear)" data-index="7" style="visibility: hidden;"></path>

<path d="M31.6504 30.563C31.6504 30.563 43.2383 30.2388 43.3194 30.2388L44.0575 29.9955C44.0575 29.8292 43.554 29.7737 43.3834 29.7737C43.0548 29.7737 34.9655 29.5092 31.6504 30.563Z" fill="#975500" data-index="9" style="visibility: hidden;"></path>

<defs>
<linearGradient id="paint0_linear" x1="34.4007" y1="79.0112" x2="42.1414" y2="23.9156" gradientUnits="userSpaceOnUse">
<stop offset="0.00132565" stop-color="#F0C492"></stop>
<stop offset="1" stop-color="#F8DBBA"></stop>
</linearGradient>
<linearGradient id="paint1_linear" x1="39.3489" y1="16.6059" x2="46.4066" y2="45.8992" gradientUnits="userSpaceOnUse">
<stop stop-color="#FFBC47" stop-opacity="0"></stop>
<stop offset="1" stop-color="#C86F34"></stop>
</linearGradient>
<linearGradient id="paint2_linear" x1="39.1828" y1="18.8687" x2="44.8492" y2="36.2727" gradientUnits="userSpaceOnUse">
<stop stop-color="#FFBC47" stop-opacity="0"></stop>
<stop offset="1" stop-color="#C86F34"></stop>
</linearGradient>
<linearGradient id="paint3_linear" x1="62.7991" y1="27.1772" x2="52.9334" y2="58.5953" gradientUnits="userSpaceOnUse">
<stop stop-color="#FFBC47" stop-opacity="0"></stop>
<stop offset="1" stop-color="#C86F34"></stop>
</linearGradient>
<linearGradient id="paint4_linear" x1="50.564" y1="46.5274" x2="41.8524" y2="46.5274" gradientUnits="userSpaceOnUse">
<stop stop-color="#FFBC47" stop-opacity="0"></stop>
<stop offset="1" stop-color="#E68E43"></stop>
</linearGradient>
<linearGradient id="paint5_linear" x1="29.0401" y1="45.8316" x2="22.8171" y2="85.7493" gradientUnits="userSpaceOnUse">
<stop stop-color="#FFBC47" stop-opacity="0"></stop>
<stop offset="1" stop-color="#C86F34"></stop>
</linearGradient>
<linearGradient id="paint6_linear" x1="28.028" y1="36.768" x2="3.43989" y2="16.4297" gradientUnits="userSpaceOnUse">
<stop stop-color="#FFBC47" stop-opacity="0"></stop>
<stop offset="1" stop-color="#C86F34"></stop>
</linearGradient>
<linearGradient id="paint7_linear" x1="28.0024" y1="40.5442" x2="18.1368" y2="106.871" gradientUnits="userSpaceOnUse">
<stop stop-color="#FFBC47" stop-opacity="0"></stop>
<stop offset="1" stop-color="#C86F34"></stop>
</linearGradient>
<radialGradient id="paint8_radial" cx="0" cy="0" r="1" gradientUnits="userSpaceOnUse" gradientTransform="translate(40.5785 42.2054) rotate(-90) scale(10.3565 5.25878)">
<stop stop-color="#F8E6D2"></stop>
<stop offset="1" stop-color="#F8E6D2" stop-opacity="0"></stop>
</radialGradient>
<radialGradient id="paint9_radial" cx="0" cy="0" r="1" gradientUnits="userSpaceOnUse" gradientTransform="translate(58.0979 34.2274) rotate(-178.412) scale(12.7002 1.48143)">
<stop stop-color="#F8E6D2"></stop>
<stop offset="1" stop-color="#F8E6D2" stop-opacity="0"></stop>
</radialGradient>
</defs>
</svg>